<?xml version="1.0" encoding="UTF-8"?>
<svg width="28px" height="28px" viewBox="0 0 28 28" version="1.1" xmlns="http://www.w3.org/2000/svg" xmlns:xlink="http://www.w3.org/1999/xlink">
    <title>成功</title>
    <g id="移动端（白）" stroke="none" stroke-width="1" fill="none" fill-rule="evenodd">
        <g id="配网4备份" transform="translate(-204, -430)">
            <g id="成功" transform="translate(204, 430)">
                <rect id="矩形" fill="#D8D8D8" opacity="0" x="0" y="0" width="28" height="28"></rect>
                <path d="M24.5225742,5.53547166 C25.2991924,4.77883762 26.5372809,4.77883762 27.3138991,5.53547166 L27.3598263,5.58021708 C27.3720297,5.59210647 27.3840777,5.60415441 27.3959671,5.61635783 C28.1516879,6.39203865 28.1355071,7.63348499 27.3598263,8.38920583 L12.8980024,22.478895 C12.1213842,23.2355291 10.8832957,23.2355291 10.1066775,22.478895 C10.0003866,22.4136312 9.90328013,22.3430136 9.81151361,22.2625128 L0.666972974,14.2406049 C-0.146138986,13.5273149 -0.227060681,12.2899216 0.486229308,11.4768096 C0.49738971,11.4640874 0.508714547,11.4515103 0.520200965,11.4390816 L0.561670056,11.3942107 C1.2976572,10.5978476 2.53420359,10.5330648 3.34937628,11.2481625 L11.405,18.3149961 Z" id="形状结合" fill="#67D16D" fill-rule="nonzero"></path>
            </g>
        </g>
    </g>
</svg>